<mxfile host="app.diagrams.net" modified="2023-09-01T14:08:23.367Z" agent="Mozilla/5.0 (Windows NT 10.0; Win64; x64) AppleWebKit/537.36 (KHTML, like Gecko) Chrome/116.0.0.0 Safari/537.36" version="21.7.2" etag="JO3nfl1btKaC_pBk2DnF" type="github">
  <diagram name="Pagina-1" id="xrm3c96OpTf_Y7rTwhOL">
    <mxGraphModel>
      <root>
        <mxCell id="0" />
        <mxCell id="1" parent="0" />
      </root>
    </mxGraphModel>
  </diagram>
</mxfile>
